{"accessors" : [{"bufferView" : 0, "byteOffset" : 0, "componentType" : 5125, "count" : 239403, "type" : "SCALAR", "max" : [239402], "min" : [0]}, {"bufferView" : 1, "byteOffset" : 0, "componentType" : 5126, "count" : 239403, "type" : "VEC3", "max" : [-17.99189567565918, 36.6497688293457, 19.08848762512207], "min" : [-62.38298797607422, -8.577787399291992, 2.184464693069458]}, {"bufferView" : 1, "byteOffset" : 12, "componentType" : 5126, "count" : 239403, "type" : "VEC2", "max" : [0.9990216493606567, 0.9990225434303284], "min" : [0.0009765625, 0.02832043170928955]}], "asset" : {"generator" : "Aspose.3D 20.9.1", "version" : "2.0"}, "buffers" : [{"uri" : "buffer.bin", "byteLength" : 5745680}], "bufferViews" : [{"buffer" : 0, "byteOffset" : 0, "byteLength" : 957612, "target" : 34963}, {"buffer" : 0, "byteOffset" : 957616, "byteLength" : 4788060, "byteStride" : 20, "target" : 34962}], "images" : [{"uri" : "croissaint_velvet_smoothed_80k_cut_u0_v0.jpeg"}], "materials" : [{"pbrMetallicRoughness" : {"baseColorFactor" : [1, 1, 1, 1], "baseColorTexture" : {"index" : 0, "texCoord" : 0}, "metallicFactor" : 0, "roughnessFactor" : 1}, "emissiveFactor" : [0, 0, 0], "alphaMode" : "OPAQUE", "doubleSided" : false}], "meshes" : [{"primitives" : [{"attributes" : {"POSITION" : 1, "TEXCOORD_0" : 2}, "indices" : 0, "material" : 0, "mode" : 4}]}], "nodes" : [{"mesh" : 0}], "samplers" : [{"magFilter" : 9729, "minFilter" : 9729, "wrapS" : 33071, "wrapT" : 33071}], "scene" : 0, "scenes" : [{"nodes" : [0]}], "textures" : [{"sampler" : 0, "source" : 0}]}