{
    "asset" : {
        "generator" : "Khronos glTF Blender I/O v1.3.48",
        "version" : "2.0"
    },
    "scene" : 0,
    "scenes" : [
        {
            "name" : "Scene",
            "nodes" : [
                0,
                1,
                2,
                3,
                4,
                5,
                6,
                7,
                8
            ]
        }
    ],
    "nodes" : [
        {
            "name" : "Light",
            "rotation" : [
                -0.5199545621871948,
                0.6534217000007629,
                0.3854689598083496,
                0.3925569951534271
            ],
            "scale" : [
                5.11002254486084,
                5.110023021697998,
                5.110023498535156
            ],
            "translation" : [
                -20.735044479370117,
                11.615996360778809,
                0.010418176651000977
            ]
        },
        {
            "name" : "Camera",
            "rotation" : [
                0.668518602848053,
                -0.2725624144077301,
                0.2900433838367462,
                0.6282256245613098
            ],
            "translation" : [
                -30.134376525878906,
                5.918440341949463,
                28.876482009887695
            ]
        },
        {
            "mesh" : 0,
            "name" : "Cube",
            "rotation" : [
                0,
                -0.33430027961730957,
                0,
                0.9424666166305542
            ],
            "translation" : [
                -4.343570232391357,
                2.231705665588379,
                4.779682159423828
            ]
        },
        {
            "mesh" : 1,
            "name" : "Icosphere.001",
            "rotation" : [
                0,
                -0.33430027961730957,
                0,
                0.9424666166305542
            ],
            "scale" : [
                1.4555448293685913,
                1.4555448293685913,
                1.4555448293685913
            ],
            "translation" : [
                -7.7093682289123535,
                9.608397483825684,
                1.6937004327774048
            ]
        },
        {
            "name" : "Light.001",
            "rotation" : [
                0.4419914186000824,
                0.6020252704620361,
                0.45307958126068115,
                -0.48675259947776794
            ],
            "scale" : [
                1.5999906063079834,
                1.5999906063079834,
                1.5999908447265625
            ],
            "translation" : [
                3.574272394180298,
                16.714452743530273,
                3.2985925674438477
            ]
        },
        {
            "name" : "Light.002",
            "rotation" : [
                0.061503782868385315,
                0.5290526151657104,
                0.8404263257980347,
                -0.10002121329307556
            ],
            "scale" : [
                1.5999906063079834,
                1.5999906063079834,
                1.5999908447265625
            ],
            "translation" : [
                -0.14988136291503906,
                7.387840270996094,
                18.899572372436523
            ]
        },
        {
            "mesh" : 2,
            "name" : "Icosphere.010",
            "rotation" : [
                0,
                -0.33430027961730957,
                0,
                0.9424666166305542
            ],
            "scale" : [
                1.4633867740631104,
                1.4633867740631104,
                1.4633867740631104
            ],
            "translation" : [
                -4.533291339874268,
                14.158985137939453,
                4.81805419921875
            ]
        },
        {
            "mesh" : 3,
            "name" : "Icosphere.016",
            "rotation" : [
                0,
                -0.33430027961730957,
                0,
                0.9424666166305542
            ],
            "scale" : [
                1.4126511812210083,
                1.4126511812210083,
                1.4126511812210083
            ],
            "translation" : [
                -0.727016031742096,
                12.641827583312988,
                8.327838897705078
            ]
        },
        {
            "name" : "Light.003",
            "rotation" : [
                -0.5420553684234619,
                0.4964762032032013,
                -0.07070860266685486,
                0.6743054389953613
            ],
            "scale" : [
                5.11002254486084,
                5.110023021697998,
                5.110023498535156
            ],
            "translation" : [
                -10.326101303100586,
                19.374910354614258,
                -12.49953842163086
            ]
        }
    ],
    "materials" : [
        {
            "doubleSided" : true,
            "emissiveFactor" : [
                0,
                0,
                0
            ],
            "name" : "Material.001",
            "pbrMetallicRoughness" : {
                "baseColorFactor" : [
                    0,
                    0,
                    0,
                    1
                ],
                "metallicFactor" : 0.3238607347011566,
                "roughnessFactor" : 0.5
            }
        },
        {
            "doubleSided" : true,
            "emissiveFactor" : [
                1,
                1,
                1
            ],
            "name" : "Material.006",
            "pbrMetallicRoughness" : {
                "baseColorFactor" : [
                    1,
                    1,
                    1,
                    1
                ],
                "metallicFactor" : 0.9841269850730896,
                "roughnessFactor" : 0.5080645084381104
            }
        },
        {
            "doubleSided" : true,
            "emissiveFactor" : [
                1,
                1,
                1
            ],
            "name" : "Material.002",
            "pbrMetallicRoughness" : {
                "baseColorFactor" : [
                    1,
                    1,
                    1,
                    1
                ],
                "metallicFactor" : 0.9841270446777344,
                "roughnessFactor" : 0.516129195690155
            }
        },
        {
            "doubleSided" : true,
            "emissiveFactor" : [
                0.9520164728164673,
                0.9520164728164673,
                0.9520164728164673
            ],
            "name" : "Material.005",
            "pbrMetallicRoughness" : {
                "baseColorFactor" : [
                    0.9828822016716003,
                    0.9871454238891602,
                    1,
                    1
                ],
                "metallicFactor" : 1,
                "roughnessFactor" : 0.4920634925365448
            }
        }
    ],
    "meshes" : [
        {
            "name" : "Cube.001",
            "primitives" : [
                {
                    "attributes" : {
                        "POSITION" : 0,
                        "NORMAL" : 1,
                        "TEXCOORD_0" : 2
                    },
                    "indices" : 3,
                    "material" : 0
                }
            ]
        },
        {
            "name" : "Icosphere.001",
            "primitives" : [
                {
                    "attributes" : {
                        "POSITION" : 4,
                        "NORMAL" : 5,
                        "TEXCOORD_0" : 6
                    },
                    "indices" : 7,
                    "material" : 1
                }
            ]
        },
        {
            "name" : "Icosphere.010",
            "primitives" : [
                {
                    "attributes" : {
                        "POSITION" : 8,
                        "NORMAL" : 9,
                        "TEXCOORD_0" : 10
                    },
                    "indices" : 7,
                    "material" : 2
                }
            ]
        },
        {
            "name" : "Icosphere.016",
            "primitives" : [
                {
                    "attributes" : {
                        "POSITION" : 11,
                        "NORMAL" : 12,
                        "TEXCOORD_0" : 13
                    },
                    "indices" : 7,
                    "material" : 3
                }
            ]
        }
    ],
    "accessors" : [
        {
            "bufferView" : 0,
            "componentType" : 5126,
            "count" : 334,
            "max" : [
                4.952505111694336,
                10.514043807983398,
                1.1205288171768188
            ],
            "min" : [
                -3.6340322494506836,
                -0.9761364459991455,
                -0.9377703666687012
            ],
            "type" : "VEC3"
        },
        {
            "bufferView" : 1,
            "componentType" : 5126,
            "count" : 334,
            "type" : "VEC3"
        },
        {
            "bufferView" : 2,
            "componentType" : 5126,
            "count" : 334,
            "type" : "VEC2"
        },
        {
            "bufferView" : 3,
            "componentType" : 5123,
            "count" : 510,
            "type" : "SCALAR"
        },
        {
            "bufferView" : 4,
            "componentType" : 5126,
            "count" : 960,
            "max" : [
                1,
                1,
                0.9999999403953552
            ],
            "min" : [
                -0.9999999403953552,
                -1,
                -0.9999999403953552
            ],
            "type" : "VEC3"
        },
        {
            "bufferView" : 5,
            "componentType" : 5126,
            "count" : 960,
            "type" : "VEC3"
        },
        {
            "bufferView" : 6,
            "componentType" : 5126,
            "count" : 960,
            "type" : "VEC2"
        },
        {
            "bufferView" : 7,
            "componentType" : 5123,
            "count" : 960,
            "type" : "SCALAR"
        },
        {
            "bufferView" : 8,
            "componentType" : 5126,
            "count" : 960,
            "max" : [
                1,
                1,
                0.9999999403953552
            ],
            "min" : [
                -0.9999999403953552,
                -1,
                -0.9999999403953552
            ],
            "type" : "VEC3"
        },
        {
            "bufferView" : 9,
            "componentType" : 5126,
            "count" : 960,
            "type" : "VEC3"
        },
        {
            "bufferView" : 10,
            "componentType" : 5126,
            "count" : 960,
            "type" : "VEC2"
        },
        {
            "bufferView" : 11,
            "componentType" : 5126,
            "count" : 960,
            "max" : [
                1,
                1,
                0.9999999403953552
            ],
            "min" : [
                -0.9999999403953552,
                -1,
                -0.9999999403953552
            ],
            "type" : "VEC3"
        },
        {
            "bufferView" : 12,
            "componentType" : 5126,
            "count" : 960,
            "type" : "VEC3"
        },
        {
            "bufferView" : 13,
            "componentType" : 5126,
            "count" : 960,
            "type" : "VEC2"
        }
    ],
    "bufferViews" : [
        {
            "buffer" : 0,
            "byteLength" : 4008,
            "byteOffset" : 0
        },
        {
            "buffer" : 0,
            "byteLength" : 4008,
            "byteOffset" : 4008
        },
        {
            "buffer" : 0,
            "byteLength" : 2672,
            "byteOffset" : 8016
        },
        {
            "buffer" : 0,
            "byteLength" : 1020,
            "byteOffset" : 10688
        },
        {
            "buffer" : 0,
            "byteLength" : 11520,
            "byteOffset" : 11708
        },
        {
            "buffer" : 0,
            "byteLength" : 11520,
            "byteOffset" : 23228
        },
        {
            "buffer" : 0,
            "byteLength" : 7680,
            "byteOffset" : 34748
        },
        {
            "buffer" : 0,
            "byteLength" : 1920,
            "byteOffset" : 42428
        },
        {
            "buffer" : 0,
            "byteLength" : 11520,
            "byteOffset" : 44348
        },
        {
            "buffer" : 0,
            "byteLength" : 11520,
            "byteOffset" : 55868
        },
        {
            "buffer" : 0,
            "byteLength" : 7680,
            "byteOffset" : 67388
        },
        {
            "buffer" : 0,
            "byteLength" : 11520,
            "byteOffset" : 75068
        },
        {
            "buffer" : 0,
            "byteLength" : 11520,
            "byteOffset" : 86588
        },
        {
            "buffer" : 0,
            "byteLength" : 7680,
            "byteOffset" : 98108
        }
    ],
    "buffers" : [
        {
            "byteLength" : 105788,
            "uri" : "data:application/octet-stream;base64,"
        }
    ]
}
